<?xml version="1.0" encoding="UTF-8" standalone="no"?>
<!DOCTYPE svg PUBLIC "-//W3C//DTD SVG 1.1//EN"
 "http://www.w3.org/Graphics/SVG/1.1/DTD/svg11.dtd">
<!-- Generated by graphviz version 2.40.1 (20161225.0304)
 -->
<!-- Title: linkedlist Pages: 1 -->
<svg width="364pt" height="306pt"
 viewBox="0.00 0.00 364.00 306.00" xmlns="http://www.w3.org/2000/svg" xmlns:xlink="http://www.w3.org/1999/xlink">
<g id="graph0" class="graph" transform="scale(1 1) rotate(0) translate(4 302)">
<title>linkedlist</title>
<polygon fill="#ffffff" stroke="transparent" points="-4,4 -4,-302 360,-302 360,4 -4,4"/>
<!-- A -->
<g id="node1" class="node">
<title>A</title>
<polygon fill="none" stroke="#00ffff" points="147,-261.5 147,-297.5 209,-297.5 209,-261.5 147,-261.5"/>
<text text-anchor="middle" x="156.75" y="-275.3" font-family="Times,serif" font-size="14.00" fill="#000000"> </text>
<polyline fill="none" stroke="#00ffff" points="166.5,-261.5 166.5,-297.5 "/>
<text text-anchor="middle" x="178" y="-275.3" font-family="Times,serif" font-size="14.00" fill="#000000">1</text>
<polyline fill="none" stroke="#00ffff" points="189.5,-261.5 189.5,-297.5 "/>
<text text-anchor="middle" x="199.25" y="-275.3" font-family="Times,serif" font-size="14.00" fill="#000000"> </text>
</g>
<!-- B -->
<g id="node2" class="node">
<title>B</title>
<polygon fill="none" stroke="#00ffff" points="98,-174.5 98,-210.5 160,-210.5 160,-174.5 98,-174.5"/>
<text text-anchor="middle" x="107.75" y="-188.3" font-family="Times,serif" font-size="14.00" fill="#000000"> </text>
<polyline fill="none" stroke="#00ffff" points="117.5,-174.5 117.5,-210.5 "/>
<text text-anchor="middle" x="129" y="-188.3" font-family="Times,serif" font-size="14.00" fill="#000000">2</text>
<polyline fill="none" stroke="#00ffff" points="140.5,-174.5 140.5,-210.5 "/>
<text text-anchor="middle" x="150.25" y="-188.3" font-family="Times,serif" font-size="14.00" fill="#000000"> </text>
</g>
<!-- A&#45;&gt;B -->
<g id="edge1" class="edge">
<title>A:data&#45;&gt;B:left</title>
<path fill="none" stroke="#ffa500" d="M176.6642,-253.2577C168.0829,-229.8297 120.7314,-242.1135 110.1134,-220.5617"/>
<ellipse fill="#ffa500" stroke="#ffa500" cx="177.36" cy="-257.5515" rx="4" ry="4"/>
<polygon fill="#ffa500" stroke="#ffa500" points="108,-210.5 114.4596,-219.3614 109.0279,-215.3932 110.0557,-220.2864 110.0557,-220.2864 110.0557,-220.2864 109.0279,-215.3932 105.6518,-221.2115 108,-210.5 108,-210.5"/>
</g>
<!-- C -->
<g id="node3" class="node">
<title>C</title>
<polygon fill="none" stroke="#00ffff" points="196,-174.5 196,-210.5 258,-210.5 258,-174.5 196,-174.5"/>
<text text-anchor="middle" x="205.75" y="-188.3" font-family="Times,serif" font-size="14.00" fill="#000000"> </text>
<polyline fill="none" stroke="#00ffff" points="215.5,-174.5 215.5,-210.5 "/>
<text text-anchor="middle" x="227" y="-188.3" font-family="Times,serif" font-size="14.00" fill="#000000">3</text>
<polyline fill="none" stroke="#00ffff" points="238.5,-174.5 238.5,-210.5 "/>
<text text-anchor="middle" x="248.25" y="-188.3" font-family="Times,serif" font-size="14.00" fill="#000000"> </text>
</g>
<!-- A&#45;&gt;C -->
<g id="edge2" class="edge">
<title>A:data&#45;&gt;C:right</title>
<path fill="none" stroke="#ffa500" d="M179.3358,-253.2577C187.9171,-229.8297 235.2686,-242.1135 245.8866,-220.5617"/>
<ellipse fill="#ffa500" stroke="#ffa500" cx="178.64" cy="-257.5515" rx="4" ry="4"/>
<polygon fill="#ffa500" stroke="#ffa500" points="248,-210.5 250.3482,-221.2115 246.9721,-215.3932 245.9443,-220.2864 245.9443,-220.2864 245.9443,-220.2864 246.9721,-215.3932 241.5404,-219.3614 248,-210.5 248,-210.5"/>
</g>
<!-- D -->
<g id="node4" class="node">
<title>D</title>
<polygon fill="none" stroke="#00ffff" points="0,-87.5 0,-123.5 62,-123.5 62,-87.5 0,-87.5"/>
<text text-anchor="middle" x="9.75" y="-101.3" font-family="Times,serif" font-size="14.00" fill="#000000"> </text>
<polyline fill="none" stroke="#00ffff" points="19.5,-87.5 19.5,-123.5 "/>
<text text-anchor="middle" x="31" y="-101.3" font-family="Times,serif" font-size="14.00" fill="#000000">4</text>
<polyline fill="none" stroke="#00ffff" points="42.5,-87.5 42.5,-123.5 "/>
<text text-anchor="middle" x="52.25" y="-101.3" font-family="Times,serif" font-size="14.00" fill="#000000"> </text>
</g>
<!-- B&#45;&gt;D -->
<g id="edge3" class="edge">
<title>B:data&#45;&gt;D:left</title>
<path fill="none" stroke="#ffa500" d="M128.0421,-166.3758C117.572,-126.4023 24.5437,-170.8076 11.5134,-133.4508"/>
<ellipse fill="#ffa500" stroke="#ffa500" cx="128.5316" cy="-170.5275" rx="4" ry="4"/>
<polygon fill="#ffa500" stroke="#ffa500" points="10,-123.5 15.9525,-132.7097 10.7518,-128.4432 11.5037,-133.3863 11.5037,-133.3863 11.5037,-133.3863 10.7518,-128.4432 7.0548,-134.063 10,-123.5 10,-123.5"/>
</g>
<!-- E -->
<g id="node5" class="node">
<title>E</title>
<polygon fill="none" stroke="#00ffff" points="98,-87.5 98,-123.5 160,-123.5 160,-87.5 98,-87.5"/>
<text text-anchor="middle" x="107.75" y="-101.3" font-family="Times,serif" font-size="14.00" fill="#000000"> </text>
<polyline fill="none" stroke="#00ffff" points="117.5,-87.5 117.5,-123.5 "/>
<text text-anchor="middle" x="129" y="-101.3" font-family="Times,serif" font-size="14.00" fill="#000000">5</text>
<polyline fill="none" stroke="#00ffff" points="140.5,-87.5 140.5,-123.5 "/>
<text text-anchor="middle" x="150.25" y="-101.3" font-family="Times,serif" font-size="14.00" fill="#000000"> </text>
</g>
<!-- B&#45;&gt;E -->
<g id="edge4" class="edge">
<title>B:data&#45;&gt;E:right</title>
<path fill="none" stroke="#ffa500" d="M129.9023,-166.2761C133.1996,-152.2202 144.6113,-146.8734 148.6059,-133.566"/>
<ellipse fill="#ffa500" stroke="#ffa500" cx="129.4363" cy="-170.5239" rx="4" ry="4"/>
<polygon fill="#ffa500" stroke="#ffa500" points="150,-123.5 153.0855,-134.0228 149.314,-128.4527 148.628,-133.4054 148.628,-133.4054 148.628,-133.4054 149.314,-128.4527 144.1706,-132.7881 150,-123.5 150,-123.5"/>
</g>
<!-- F -->
<g id="node6" class="node">
<title>F</title>
<polygon fill="none" stroke="#00ffff" points="196,-87.5 196,-123.5 258,-123.5 258,-87.5 196,-87.5"/>
<text text-anchor="middle" x="205.75" y="-101.3" font-family="Times,serif" font-size="14.00" fill="#000000"> </text>
<polyline fill="none" stroke="#00ffff" points="215.5,-87.5 215.5,-123.5 "/>
<text text-anchor="middle" x="227" y="-101.3" font-family="Times,serif" font-size="14.00" fill="#000000">6</text>
<polyline fill="none" stroke="#00ffff" points="238.5,-87.5 238.5,-123.5 "/>
<text text-anchor="middle" x="248.25" y="-101.3" font-family="Times,serif" font-size="14.00" fill="#000000"> </text>
</g>
<!-- C&#45;&gt;F -->
<g id="edge5" class="edge">
<title>C:data&#45;&gt;F:left</title>
<path fill="none" stroke="#ffa500" d="M226.0977,-166.2761C222.8004,-152.2202 211.3887,-146.8734 207.3941,-133.566"/>
<ellipse fill="#ffa500" stroke="#ffa500" cx="226.5637" cy="-170.5239" rx="4" ry="4"/>
<polygon fill="#ffa500" stroke="#ffa500" points="206,-123.5 211.8294,-132.7881 206.686,-128.4527 207.372,-133.4054 207.372,-133.4054 207.372,-133.4054 206.686,-128.4527 202.9145,-134.0228 206,-123.5 206,-123.5"/>
</g>
<!-- G -->
<g id="node7" class="node">
<title>G</title>
<polygon fill="none" stroke="#00ffff" points="294,-87.5 294,-123.5 356,-123.5 356,-87.5 294,-87.5"/>
<text text-anchor="middle" x="303.75" y="-101.3" font-family="Times,serif" font-size="14.00" fill="#000000"> </text>
<polyline fill="none" stroke="#00ffff" points="313.5,-87.5 313.5,-123.5 "/>
<text text-anchor="middle" x="325" y="-101.3" font-family="Times,serif" font-size="14.00" fill="#000000">7</text>
<polyline fill="none" stroke="#00ffff" points="336.5,-87.5 336.5,-123.5 "/>
<text text-anchor="middle" x="346.25" y="-101.3" font-family="Times,serif" font-size="14.00" fill="#000000"> </text>
</g>
<!-- C&#45;&gt;G -->
<g id="edge6" class="edge">
<title>C:data&#45;&gt;G:right</title>
<path fill="none" stroke="#ffa500" d="M227.9579,-166.3758C238.428,-126.4023 331.4563,-170.8076 344.4866,-133.4508"/>
<ellipse fill="#ffa500" stroke="#ffa500" cx="227.4684" cy="-170.5275" rx="4" ry="4"/>
<polygon fill="#ffa500" stroke="#ffa500" points="346,-123.5 348.9452,-134.063 345.2482,-128.4432 344.4963,-133.3863 344.4963,-133.3863 344.4963,-133.3863 345.2482,-128.4432 340.0475,-132.7097 346,-123.5 346,-123.5"/>
</g>
<!-- Null -->
<g id="node8" class="node">
<title>Null</title>
<polygon fill="none" stroke="#00ffff" points="151,-.5 151,-36.5 205,-36.5 205,-.5 151,-.5"/>
<text text-anchor="middle" x="177.9439" y="-14.3" font-family="Times,serif" font-size="14.00" fill="#000000">Null</text>
</g>
<!-- D&#45;&gt;Null -->
<g id="edge7" class="edge">
<title>D:DATA&#45;&gt;Null</title>
<path fill="none" stroke="#000000" d="M41.6743,-87.3097C41.7821,-87.2052 41.8907,-87.1019 42,-87 70.6628,-60.2725 111.734,-41.5296 141.2315,-30.4864"/>
<polygon fill="#000000" stroke="#000000" points="142.5466,-33.7326 150.7567,-27.036 140.1625,-27.1511 142.5466,-33.7326"/>
</g>
<!-- E&#45;&gt;Null -->
<g id="edge8" class="edge">
<title>E:DATA&#45;&gt;Null</title>
<path fill="none" stroke="#000000" d="M139.1528,-87.4735C145.9856,-75.3418 155.1172,-59.1287 162.8101,-45.4698"/>
<polygon fill="#000000" stroke="#000000" points="166.0023,-46.9341 167.8602,-36.5034 159.9032,-43.4989 166.0023,-46.9341"/>
</g>
<!-- F&#45;&gt;Null -->
<g id="edge9" class="edge">
<title>F:DATA&#45;&gt;Null</title>
<path fill="none" stroke="#000000" d="M216.8472,-87.4735C210.0144,-75.3418 200.8828,-59.1287 193.1899,-45.4698"/>
<polygon fill="#000000" stroke="#000000" points="196.0968,-43.4989 188.1398,-36.5034 189.9977,-46.9341 196.0968,-43.4989"/>
</g>
<!-- G&#45;&gt;Null -->
<g id="edge10" class="edge">
<title>G:DATA&#45;&gt;Null</title>
<path fill="none" stroke="#000000" d="M314.3257,-87.3097C314.2179,-87.2052 314.1093,-87.1019 314,-87 285.3372,-60.2725 244.266,-41.5296 214.7685,-30.4864"/>
<polygon fill="#000000" stroke="#000000" points="215.8375,-27.1511 205.2433,-27.036 213.4534,-33.7326 215.8375,-27.1511"/>
</g>
</g>
</svg>
