<?xml version="1.0" encoding="UTF-8" standalone="no"?>
<!DOCTYPE svg PUBLIC "-//W3C//DTD SVG 1.1//EN"
 "http://www.w3.org/Graphics/SVG/1.1/DTD/svg11.dtd">
<!-- Generated by graphviz version 2.40.1 (20161225.0304)
 -->
<!-- Title: linkedlist Pages: 1 -->
<svg width="310pt" height="264pt"
 viewBox="0.00 0.00 310.00 264.00" xmlns="http://www.w3.org/2000/svg" xmlns:xlink="http://www.w3.org/1999/xlink">
<g id="graph0" class="graph" transform="scale(1 1) rotate(0) translate(4 260)">
<title>linkedlist</title>
<polygon fill="#ffffff" stroke="transparent" points="-4,4 -4,-260 306,-260 306,4 -4,4"/>
<!-- A -->
<g id="node1" class="node">
<title>A</title>
<polygon fill="none" stroke="#00ffff" points="120,-219.5 120,-255.5 182,-255.5 182,-219.5 120,-219.5"/>
<text text-anchor="middle" x="129.75" y="-233.3" font-family="Times,serif" font-size="14.00" fill="#000000"> </text>
<polyline fill="none" stroke="#00ffff" points="139.5,-219.5 139.5,-255.5 "/>
<text text-anchor="middle" x="151" y="-233.3" font-family="Times,serif" font-size="14.00" fill="#000000">1</text>
<polyline fill="none" stroke="#00ffff" points="162.5,-219.5 162.5,-255.5 "/>
<text text-anchor="middle" x="172.25" y="-233.3" font-family="Times,serif" font-size="14.00" fill="#000000"> </text>
</g>
<!-- B -->
<g id="node2" class="node">
<title>B</title>
<polygon fill="none" stroke="#00ffff" points="59,-146.5 59,-182.5 121,-182.5 121,-146.5 59,-146.5"/>
<text text-anchor="middle" x="68.75" y="-160.3" font-family="Times,serif" font-size="14.00" fill="#000000"> </text>
<polyline fill="none" stroke="#00ffff" points="78.5,-146.5 78.5,-182.5 "/>
<text text-anchor="middle" x="90" y="-160.3" font-family="Times,serif" font-size="14.00" fill="#000000">2</text>
<polyline fill="none" stroke="#00ffff" points="101.5,-146.5 101.5,-182.5 "/>
<text text-anchor="middle" x="111.25" y="-160.3" font-family="Times,serif" font-size="14.00" fill="#000000"> </text>
</g>
<!-- A&#45;&gt;B -->
<g id="edge1" class="edge">
<title>A:left&#45;&gt;B:data</title>
<path fill="none" stroke="#ffa500" d="M128.0707,-211.5705C121.6411,-200.402 100.9075,-201.9825 93.0537,-192.0834"/>
<ellipse fill="#ffa500" stroke="#ffa500" cx="129.0543" cy="-215.6134" rx="4" ry="4"/>
<polygon fill="#ffa500" stroke="#ffa500" points="90,-182.5 97.3237,-190.6617 91.5181,-187.264 93.0362,-192.028 93.0362,-192.028 93.0362,-192.028 91.5181,-187.264 88.7486,-193.3942 90,-182.5 90,-182.5"/>
</g>
<!-- C -->
<g id="node3" class="node">
<title>C</title>
<polygon fill="none" stroke="#00ffff" points="181,-146.5 181,-182.5 243,-182.5 243,-146.5 181,-146.5"/>
<text text-anchor="middle" x="190.75" y="-160.3" font-family="Times,serif" font-size="14.00" fill="#000000"> </text>
<polyline fill="none" stroke="#00ffff" points="200.5,-146.5 200.5,-182.5 "/>
<text text-anchor="middle" x="212" y="-160.3" font-family="Times,serif" font-size="14.00" fill="#000000">3</text>
<polyline fill="none" stroke="#00ffff" points="223.5,-146.5 223.5,-182.5 "/>
<text text-anchor="middle" x="233.25" y="-160.3" font-family="Times,serif" font-size="14.00" fill="#000000"> </text>
</g>
<!-- A&#45;&gt;C -->
<g id="edge2" class="edge">
<title>A:right&#45;&gt;C:data</title>
<path fill="none" stroke="#ffa500" d="M173.9293,-211.5705C180.3589,-200.402 201.0925,-201.9825 208.9463,-192.0834"/>
<ellipse fill="#ffa500" stroke="#ffa500" cx="172.9457" cy="-215.6134" rx="4" ry="4"/>
<polygon fill="#ffa500" stroke="#ffa500" points="212,-182.5 213.2514,-193.3942 210.4819,-187.264 208.9638,-192.028 208.9638,-192.028 208.9638,-192.028 210.4819,-187.264 204.6763,-190.6617 212,-182.5 212,-182.5"/>
</g>
<!-- D -->
<g id="node4" class="node">
<title>D</title>
<polygon fill="none" stroke="#00ffff" points="0,-73.5 0,-109.5 62,-109.5 62,-73.5 0,-73.5"/>
<text text-anchor="middle" x="9.75" y="-87.3" font-family="Times,serif" font-size="14.00" fill="#000000"> </text>
<polyline fill="none" stroke="#00ffff" points="19.5,-73.5 19.5,-109.5 "/>
<text text-anchor="middle" x="31" y="-87.3" font-family="Times,serif" font-size="14.00" fill="#000000">4</text>
<polyline fill="none" stroke="#00ffff" points="42.5,-73.5 42.5,-109.5 "/>
<text text-anchor="middle" x="52.25" y="-87.3" font-family="Times,serif" font-size="14.00" fill="#000000"> </text>
</g>
<!-- B&#45;&gt;D -->
<g id="edge3" class="edge">
<title>B:left&#45;&gt;D:data</title>
<path fill="none" stroke="#ffa500" d="M66.957,-138.3682C60.6672,-127.8063 41.5687,-128.6095 34.0695,-119.1209"/>
<ellipse fill="#ffa500" stroke="#ffa500" cx="68.0253" cy="-142.6206" rx="4" ry="4"/>
<polygon fill="#ffa500" stroke="#ffa500" points="31,-109.5 38.3267,-117.6591 32.5198,-114.2634 34.0396,-119.0269 34.0396,-119.0269 34.0396,-119.0269 32.5198,-114.2634 29.7525,-120.3947 31,-109.5 31,-109.5"/>
</g>
<!-- E -->
<g id="node5" class="node">
<title>E</title>
<polygon fill="none" stroke="#00ffff" points="80,-73.5 80,-109.5 142,-109.5 142,-73.5 80,-73.5"/>
<text text-anchor="middle" x="89.75" y="-87.3" font-family="Times,serif" font-size="14.00" fill="#000000"> </text>
<polyline fill="none" stroke="#00ffff" points="99.5,-73.5 99.5,-109.5 "/>
<text text-anchor="middle" x="111" y="-87.3" font-family="Times,serif" font-size="14.00" fill="#000000">5</text>
<polyline fill="none" stroke="#00ffff" points="122.5,-73.5 122.5,-109.5 "/>
<text text-anchor="middle" x="132.25" y="-87.3" font-family="Times,serif" font-size="14.00" fill="#000000"> </text>
</g>
<!-- B&#45;&gt;E -->
<g id="edge4" class="edge">
<title>B:right&#45;&gt;E:data</title>
<path fill="none" stroke="#ffa500" d="M111,-138.3882C111,-131.1404 111,-126.4085 111,-119.5932"/>
<ellipse fill="#ffa500" stroke="#ffa500" cx="111" cy="-142.5" rx="4" ry="4"/>
<polygon fill="#ffa500" stroke="#ffa500" points="111,-109.5 115.5001,-119.5 111,-114.5 111.0001,-119.5 111.0001,-119.5 111.0001,-119.5 111,-114.5 106.5001,-119.5 111,-109.5 111,-109.5"/>
</g>
<!-- F -->
<g id="node6" class="node">
<title>F</title>
<polygon fill="none" stroke="#00ffff" points="160,-73.5 160,-109.5 222,-109.5 222,-73.5 160,-73.5"/>
<text text-anchor="middle" x="169.75" y="-87.3" font-family="Times,serif" font-size="14.00" fill="#000000"> </text>
<polyline fill="none" stroke="#00ffff" points="179.5,-73.5 179.5,-109.5 "/>
<text text-anchor="middle" x="191" y="-87.3" font-family="Times,serif" font-size="14.00" fill="#000000">6</text>
<polyline fill="none" stroke="#00ffff" points="202.5,-73.5 202.5,-109.5 "/>
<text text-anchor="middle" x="212.25" y="-87.3" font-family="Times,serif" font-size="14.00" fill="#000000"> </text>
</g>
<!-- C&#45;&gt;F -->
<g id="edge5" class="edge">
<title>C:left&#45;&gt;F:data</title>
<path fill="none" stroke="#ffa500" d="M191,-138.3882C191,-131.1404 191,-126.4085 191,-119.5932"/>
<ellipse fill="#ffa500" stroke="#ffa500" cx="191" cy="-142.5" rx="4" ry="4"/>
<polygon fill="#ffa500" stroke="#ffa500" points="191,-109.5 195.5001,-119.5 191,-114.5 191.0001,-119.5 191.0001,-119.5 191.0001,-119.5 191,-114.5 186.5001,-119.5 191,-109.5 191,-109.5"/>
</g>
<!-- G -->
<g id="node7" class="node">
<title>G</title>
<polygon fill="none" stroke="#00ffff" points="240,-73.5 240,-109.5 302,-109.5 302,-73.5 240,-73.5"/>
<text text-anchor="middle" x="249.75" y="-87.3" font-family="Times,serif" font-size="14.00" fill="#000000"> </text>
<polyline fill="none" stroke="#00ffff" points="259.5,-73.5 259.5,-109.5 "/>
<text text-anchor="middle" x="271" y="-87.3" font-family="Times,serif" font-size="14.00" fill="#000000">7</text>
<polyline fill="none" stroke="#00ffff" points="282.5,-73.5 282.5,-109.5 "/>
<text text-anchor="middle" x="292.25" y="-87.3" font-family="Times,serif" font-size="14.00" fill="#000000"> </text>
</g>
<!-- C&#45;&gt;G -->
<g id="edge6" class="edge">
<title>C:right&#45;&gt;G:data</title>
<path fill="none" stroke="#ffa500" d="M235.043,-138.3682C241.3328,-127.8063 260.4313,-128.6095 267.9305,-119.1209"/>
<ellipse fill="#ffa500" stroke="#ffa500" cx="233.9747" cy="-142.6206" rx="4" ry="4"/>
<polygon fill="#ffa500" stroke="#ffa500" points="271,-109.5 272.2475,-120.3947 269.4802,-114.2634 267.9604,-119.0269 267.9604,-119.0269 267.9604,-119.0269 269.4802,-114.2634 263.6733,-117.6591 271,-109.5 271,-109.5"/>
</g>
<!-- Null -->
<g id="node8" class="node">
<title>Null</title>
<polygon fill="none" stroke="#00ffff" points="124,-.5 124,-36.5 178,-36.5 178,-.5 124,-.5"/>
<text text-anchor="middle" x="150.9439" y="-14.3" font-family="Times,serif" font-size="14.00" fill="#000000">Null</text>
</g>
<!-- D&#45;&gt;Null -->
<g id="edge7" class="edge">
<title>D:DATA&#45;&gt;Null</title>
<path fill="none" stroke="#000000" d="M41.6738,-73.3093C41.7818,-73.2049 41.8905,-73.1018 42,-73 62.7438,-53.7137 91.6005,-39.6945 114.412,-30.7079"/>
<polygon fill="#000000" stroke="#000000" points="115.663,-33.9767 123.7769,-27.1639 113.1854,-27.4298 115.663,-33.9767"/>
</g>
<!-- E&#45;&gt;Null -->
<g id="edge8" class="edge">
<title>E:DATA&#45;&gt;Null</title>
<path fill="none" stroke="#000000" d="M120.8876,-73.4551C125.5031,-65.0319 131.0936,-54.8292 136.1985,-45.5128"/>
<polygon fill="#000000" stroke="#000000" points="139.3515,-47.042 141.0875,-36.5904 133.2127,-43.6782 139.3515,-47.042"/>
</g>
<!-- F&#45;&gt;Null -->
<g id="edge9" class="edge">
<title>F:DATA&#45;&gt;Null</title>
<path fill="none" stroke="#000000" d="M181.1124,-73.4551C176.4969,-65.0319 170.9064,-54.8292 165.8015,-45.5128"/>
<polygon fill="#000000" stroke="#000000" points="168.7873,-43.6782 160.9125,-36.5904 162.6485,-47.042 168.7873,-43.6782"/>
</g>
<!-- G&#45;&gt;Null -->
<g id="edge10" class="edge">
<title>G:DATA&#45;&gt;Null</title>
<path fill="none" stroke="#000000" d="M260.3262,-73.3093C260.2182,-73.2049 260.1095,-73.1018 260,-73 239.2562,-53.7137 210.3995,-39.6945 187.588,-30.7079"/>
<polygon fill="#000000" stroke="#000000" points="188.8146,-27.4298 178.2231,-27.1639 186.337,-33.9767 188.8146,-27.4298"/>
</g>
</g>
</svg>
