<?xml version="1.0" encoding="UTF-8" standalone="no"?>
<!DOCTYPE svg PUBLIC "-//W3C//DTD SVG 1.1//EN"
 "http://www.w3.org/Graphics/SVG/1.1/DTD/svg11.dtd">
<!-- Generated by graphviz version 2.40.1 (20161225.0304)
 -->
<!-- Title: linkedlist Pages: 1 -->
<svg width="364pt" height="306pt"
 viewBox="0.00 0.00 364.00 306.00" xmlns="http://www.w3.org/2000/svg" xmlns:xlink="http://www.w3.org/1999/xlink">
<g id="graph0" class="graph" transform="scale(1 1) rotate(0) translate(4 302)">
<title>linkedlist</title>
<polygon fill="#ffffff" stroke="transparent" points="-4,4 -4,-302 360,-302 360,4 -4,4"/>
<!-- A -->
<g id="node1" class="node">
<title>A</title>
<polygon fill="none" stroke="#00ffff" points="147,-261.5 147,-297.5 209,-297.5 209,-261.5 147,-261.5"/>
<text text-anchor="middle" x="156.75" y="-275.3" font-family="Times,serif" font-size="14.00" fill="#000000"> </text>
<polyline fill="none" stroke="#00ffff" points="166.5,-261.5 166.5,-297.5 "/>
<text text-anchor="middle" x="178" y="-275.3" font-family="Times,serif" font-size="14.00" fill="#000000">1</text>
<polyline fill="none" stroke="#00ffff" points="189.5,-261.5 189.5,-297.5 "/>
<text text-anchor="middle" x="199.25" y="-275.3" font-family="Times,serif" font-size="14.00" fill="#000000"> </text>
</g>
<!-- B -->
<g id="node2" class="node">
<title>B</title>
<polygon fill="none" stroke="#00ffff" points="77,-174.5 77,-210.5 139,-210.5 139,-174.5 77,-174.5"/>
<text text-anchor="middle" x="86.75" y="-188.3" font-family="Times,serif" font-size="14.00" fill="#000000"> </text>
<polyline fill="none" stroke="#00ffff" points="96.5,-174.5 96.5,-210.5 "/>
<text text-anchor="middle" x="108" y="-188.3" font-family="Times,serif" font-size="14.00" fill="#000000">2</text>
<polyline fill="none" stroke="#00ffff" points="119.5,-174.5 119.5,-210.5 "/>
<text text-anchor="middle" x="129.25" y="-188.3" font-family="Times,serif" font-size="14.00" fill="#000000"> </text>
</g>
<!-- A&#45;&gt;B -->
<g id="edge1" class="edge">
<title>A:left&#45;&gt;B:data</title>
<path fill="none" stroke="#ffa500" d="M155.6894,-253.4492C148.9928,-234.9918 118.5861,-237.4862 110.1667,-220.5512"/>
<ellipse fill="#ffa500" stroke="#ffa500" cx="156.3572" cy="-257.552" rx="4" ry="4"/>
<polygon fill="#ffa500" stroke="#ffa500" points="108,-210.5 114.5063,-219.3272 109.0537,-215.3877 110.1073,-220.2755 110.1073,-220.2755 110.1073,-220.2755 109.0537,-215.3877 105.7084,-221.2238 108,-210.5 108,-210.5"/>
</g>
<!-- C -->
<g id="node3" class="node">
<title>C</title>
<polygon fill="none" stroke="#00ffff" points="217,-174.5 217,-210.5 279,-210.5 279,-174.5 217,-174.5"/>
<text text-anchor="middle" x="226.75" y="-188.3" font-family="Times,serif" font-size="14.00" fill="#000000"> </text>
<polyline fill="none" stroke="#00ffff" points="236.5,-174.5 236.5,-210.5 "/>
<text text-anchor="middle" x="248" y="-188.3" font-family="Times,serif" font-size="14.00" fill="#000000">3</text>
<polyline fill="none" stroke="#00ffff" points="259.5,-174.5 259.5,-210.5 "/>
<text text-anchor="middle" x="269.25" y="-188.3" font-family="Times,serif" font-size="14.00" fill="#000000"> </text>
</g>
<!-- A&#45;&gt;C -->
<g id="edge2" class="edge">
<title>A:right&#45;&gt;C:data</title>
<path fill="none" stroke="#ffa500" d="M200.3106,-253.4492C207.0072,-234.9918 237.4139,-237.4862 245.8333,-220.5512"/>
<ellipse fill="#ffa500" stroke="#ffa500" cx="199.6428" cy="-257.552" rx="4" ry="4"/>
<polygon fill="#ffa500" stroke="#ffa500" points="248,-210.5 250.2916,-221.2238 246.9463,-215.3877 245.8927,-220.2755 245.8927,-220.2755 245.8927,-220.2755 246.9463,-215.3877 241.4937,-219.3272 248,-210.5 248,-210.5"/>
</g>
<!-- D -->
<g id="node4" class="node">
<title>D</title>
<polygon fill="none" stroke="#00ffff" points="0,-87.5 0,-123.5 62,-123.5 62,-87.5 0,-87.5"/>
<text text-anchor="middle" x="9.75" y="-101.3" font-family="Times,serif" font-size="14.00" fill="#000000"> </text>
<polyline fill="none" stroke="#00ffff" points="19.5,-87.5 19.5,-123.5 "/>
<text text-anchor="middle" x="31" y="-101.3" font-family="Times,serif" font-size="14.00" fill="#000000">4</text>
<polyline fill="none" stroke="#00ffff" points="42.5,-87.5 42.5,-123.5 "/>
<text text-anchor="middle" x="52.25" y="-101.3" font-family="Times,serif" font-size="14.00" fill="#000000"> </text>
</g>
<!-- B&#45;&gt;D -->
<g id="edge3" class="edge">
<title>B:left&#45;&gt;D:data</title>
<path fill="none" stroke="#ffa500" d="M85.7251,-166.5647C78.4966,-146.4477 42.651,-151.8769 33.257,-133.693"/>
<ellipse fill="#ffa500" stroke="#ffa500" cx="86.3655" cy="-170.5506" rx="4" ry="4"/>
<polygon fill="#ffa500" stroke="#ffa500" points="31,-123.5 37.5556,-132.2906 32.081,-128.3818 33.162,-133.2635 33.162,-133.2635 33.162,-133.2635 32.081,-128.3818 28.7684,-134.2364 31,-123.5 31,-123.5"/>
</g>
<!-- E -->
<g id="node5" class="node">
<title>E</title>
<polygon fill="none" stroke="#00ffff" points="98,-87.5 98,-123.5 160,-123.5 160,-87.5 98,-87.5"/>
<text text-anchor="middle" x="107.75" y="-101.3" font-family="Times,serif" font-size="14.00" fill="#000000"> </text>
<polyline fill="none" stroke="#00ffff" points="117.5,-87.5 117.5,-123.5 "/>
<text text-anchor="middle" x="129" y="-101.3" font-family="Times,serif" font-size="14.00" fill="#000000">5</text>
<polyline fill="none" stroke="#00ffff" points="140.5,-87.5 140.5,-123.5 "/>
<text text-anchor="middle" x="150.25" y="-101.3" font-family="Times,serif" font-size="14.00" fill="#000000"> </text>
</g>
<!-- B&#45;&gt;E -->
<g id="edge4" class="edge">
<title>B:right&#45;&gt;E:data</title>
<path fill="none" stroke="#ffa500" d="M129,-166.2887C129,-153.2041 129,-146.1988 129,-133.7195"/>
<ellipse fill="#ffa500" stroke="#ffa500" cx="129" cy="-170.5" rx="4" ry="4"/>
<polygon fill="#ffa500" stroke="#ffa500" points="129,-123.5 133.5001,-133.5 129,-128.5 129.0001,-133.5 129.0001,-133.5 129.0001,-133.5 129,-128.5 124.5001,-133.5 129,-123.5 129,-123.5"/>
</g>
<!-- F -->
<g id="node6" class="node">
<title>F</title>
<polygon fill="none" stroke="#00ffff" points="196,-87.5 196,-123.5 258,-123.5 258,-87.5 196,-87.5"/>
<text text-anchor="middle" x="205.75" y="-101.3" font-family="Times,serif" font-size="14.00" fill="#000000"> </text>
<polyline fill="none" stroke="#00ffff" points="215.5,-87.5 215.5,-123.5 "/>
<text text-anchor="middle" x="227" y="-101.3" font-family="Times,serif" font-size="14.00" fill="#000000">6</text>
<polyline fill="none" stroke="#00ffff" points="238.5,-87.5 238.5,-123.5 "/>
<text text-anchor="middle" x="248.25" y="-101.3" font-family="Times,serif" font-size="14.00" fill="#000000"> </text>
</g>
<!-- C&#45;&gt;F -->
<g id="edge5" class="edge">
<title>C:left&#45;&gt;F:data</title>
<path fill="none" stroke="#ffa500" d="M227,-166.2887C227,-153.2041 227,-146.1988 227,-133.7195"/>
<ellipse fill="#ffa500" stroke="#ffa500" cx="227" cy="-170.5" rx="4" ry="4"/>
<polygon fill="#ffa500" stroke="#ffa500" points="227,-123.5 231.5001,-133.5 227,-128.5 227.0001,-133.5 227.0001,-133.5 227.0001,-133.5 227,-128.5 222.5001,-133.5 227,-123.5 227,-123.5"/>
</g>
<!-- G -->
<g id="node7" class="node">
<title>G</title>
<polygon fill="none" stroke="#00ffff" points="294,-87.5 294,-123.5 356,-123.5 356,-87.5 294,-87.5"/>
<text text-anchor="middle" x="303.75" y="-101.3" font-family="Times,serif" font-size="14.00" fill="#000000"> </text>
<polyline fill="none" stroke="#00ffff" points="313.5,-87.5 313.5,-123.5 "/>
<text text-anchor="middle" x="325" y="-101.3" font-family="Times,serif" font-size="14.00" fill="#000000">7</text>
<polyline fill="none" stroke="#00ffff" points="336.5,-87.5 336.5,-123.5 "/>
<text text-anchor="middle" x="346.25" y="-101.3" font-family="Times,serif" font-size="14.00" fill="#000000"> </text>
</g>
<!-- C&#45;&gt;G -->
<g id="edge6" class="edge">
<title>C:right&#45;&gt;G:data</title>
<path fill="none" stroke="#ffa500" d="M270.2749,-166.5647C277.5034,-146.4477 313.349,-151.8769 322.743,-133.693"/>
<ellipse fill="#ffa500" stroke="#ffa500" cx="269.6345" cy="-170.5506" rx="4" ry="4"/>
<polygon fill="#ffa500" stroke="#ffa500" points="325,-123.5 327.2316,-134.2364 323.919,-128.3818 322.838,-133.2635 322.838,-133.2635 322.838,-133.2635 323.919,-128.3818 318.4444,-132.2906 325,-123.5 325,-123.5"/>
</g>
<!-- Null -->
<g id="node8" class="node">
<title>Null</title>
<polygon fill="none" stroke="#00ffff" points="151,-.5 151,-36.5 205,-36.5 205,-.5 151,-.5"/>
<text text-anchor="middle" x="177.9439" y="-14.3" font-family="Times,serif" font-size="14.00" fill="#000000">Null</text>
</g>
<!-- D&#45;&gt;Null -->
<g id="edge7" class="edge">
<title>D:DATA&#45;&gt;Null</title>
<path fill="none" stroke="#000000" d="M41.6743,-87.3097C41.7821,-87.2052 41.8907,-87.1019 42,-87 70.6628,-60.2725 111.734,-41.5296 141.2315,-30.4864"/>
<polygon fill="#000000" stroke="#000000" points="142.5466,-33.7326 150.7567,-27.036 140.1625,-27.1511 142.5466,-33.7326"/>
</g>
<!-- E&#45;&gt;Null -->
<g id="edge8" class="edge">
<title>E:DATA&#45;&gt;Null</title>
<path fill="none" stroke="#000000" d="M139.1528,-87.4735C145.9856,-75.3418 155.1172,-59.1287 162.8101,-45.4698"/>
<polygon fill="#000000" stroke="#000000" points="166.0023,-46.9341 167.8602,-36.5034 159.9032,-43.4989 166.0023,-46.9341"/>
</g>
<!-- F&#45;&gt;Null -->
<g id="edge9" class="edge">
<title>F:DATA&#45;&gt;Null</title>
<path fill="none" stroke="#000000" d="M216.8472,-87.4735C210.0144,-75.3418 200.8828,-59.1287 193.1899,-45.4698"/>
<polygon fill="#000000" stroke="#000000" points="196.0968,-43.4989 188.1398,-36.5034 189.9977,-46.9341 196.0968,-43.4989"/>
</g>
<!-- G&#45;&gt;Null -->
<g id="edge10" class="edge">
<title>G:DATA&#45;&gt;Null</title>
<path fill="none" stroke="#000000" d="M314.3257,-87.3097C314.2179,-87.2052 314.1093,-87.1019 314,-87 285.3372,-60.2725 244.266,-41.5296 214.7685,-30.4864"/>
<polygon fill="#000000" stroke="#000000" points="215.8375,-27.1511 205.2433,-27.036 213.4534,-33.7326 215.8375,-27.1511"/>
</g>
</g>
</svg>
