<?xml version="1.0" encoding="UTF-8" standalone="no"?>
<!DOCTYPE svg PUBLIC "-//W3C//DTD SVG 1.1//EN"
 "http://www.w3.org/Graphics/SVG/1.1/DTD/svg11.dtd">
<!-- Generated by graphviz version 2.40.1 (20161225.0304)
 -->
<!-- Title: linkedlist Pages: 1 -->
<svg width="310pt" height="264pt"
 viewBox="0.00 0.00 310.00 264.00" xmlns="http://www.w3.org/2000/svg" xmlns:xlink="http://www.w3.org/1999/xlink">
<g id="graph0" class="graph" transform="scale(1 1) rotate(0) translate(4 260)">
<title>linkedlist</title>
<polygon fill="#ffffff" stroke="transparent" points="-4,4 -4,-260 306,-260 306,4 -4,4"/>
<!-- A -->
<g id="node1" class="node">
<title>A</title>
<polygon fill="none" stroke="#00ffff" points="120,-219.5 120,-255.5 182,-255.5 182,-219.5 120,-219.5"/>
<text text-anchor="middle" x="129.75" y="-233.3" font-family="Times,serif" font-size="14.00" fill="#000000"> </text>
<polyline fill="none" stroke="#00ffff" points="139.5,-219.5 139.5,-255.5 "/>
<text text-anchor="middle" x="151" y="-233.3" font-family="Times,serif" font-size="14.00" fill="#000000">1</text>
<polyline fill="none" stroke="#00ffff" points="162.5,-219.5 162.5,-255.5 "/>
<text text-anchor="middle" x="172.25" y="-233.3" font-family="Times,serif" font-size="14.00" fill="#000000"> </text>
</g>
<!-- B -->
<g id="node2" class="node">
<title>B</title>
<polygon fill="none" stroke="#00ffff" points="80,-146.5 80,-182.5 142,-182.5 142,-146.5 80,-146.5"/>
<text text-anchor="middle" x="89.75" y="-160.3" font-family="Times,serif" font-size="14.00" fill="#000000"> </text>
<polyline fill="none" stroke="#00ffff" points="99.5,-146.5 99.5,-182.5 "/>
<text text-anchor="middle" x="111" y="-160.3" font-family="Times,serif" font-size="14.00" fill="#000000">2</text>
<polyline fill="none" stroke="#00ffff" points="122.5,-146.5 122.5,-182.5 "/>
<text text-anchor="middle" x="132.25" y="-160.3" font-family="Times,serif" font-size="14.00" fill="#000000"> </text>
</g>
<!-- A&#45;&gt;B -->
<g id="edge1" class="edge">
<title>A:data&#45;&gt;B:left</title>
<path fill="none" stroke="#ffa500" d="M149.2402,-211.5157C140.7232,-195.3719 103.7532,-206.3405 92.9654,-192.3605"/>
<ellipse fill="#ffa500" stroke="#ffa500" cx="150.139" cy="-215.5938" rx="4" ry="4"/>
<polygon fill="#ffa500" stroke="#ffa500" points="90,-182.5 97.1893,-190.7804 91.44,-187.2882 92.88,-192.0763 92.88,-192.0763 92.88,-192.0763 91.44,-187.2882 88.5706,-193.3723 90,-182.5 90,-182.5"/>
</g>
<!-- C -->
<g id="node3" class="node">
<title>C</title>
<polygon fill="none" stroke="#00ffff" points="160,-146.5 160,-182.5 222,-182.5 222,-146.5 160,-146.5"/>
<text text-anchor="middle" x="169.75" y="-160.3" font-family="Times,serif" font-size="14.00" fill="#000000"> </text>
<polyline fill="none" stroke="#00ffff" points="179.5,-146.5 179.5,-182.5 "/>
<text text-anchor="middle" x="191" y="-160.3" font-family="Times,serif" font-size="14.00" fill="#000000">3</text>
<polyline fill="none" stroke="#00ffff" points="202.5,-146.5 202.5,-182.5 "/>
<text text-anchor="middle" x="212.25" y="-160.3" font-family="Times,serif" font-size="14.00" fill="#000000"> </text>
</g>
<!-- A&#45;&gt;C -->
<g id="edge2" class="edge">
<title>A:data&#45;&gt;C:right</title>
<path fill="none" stroke="#ffa500" d="M152.7598,-211.5157C161.2768,-195.3719 198.2468,-206.3405 209.0346,-192.3605"/>
<ellipse fill="#ffa500" stroke="#ffa500" cx="151.861" cy="-215.5938" rx="4" ry="4"/>
<polygon fill="#ffa500" stroke="#ffa500" points="212,-182.5 213.4294,-193.3723 210.56,-187.2882 209.12,-192.0763 209.12,-192.0763 209.12,-192.0763 210.56,-187.2882 204.8107,-190.7804 212,-182.5 212,-182.5"/>
</g>
<!-- D -->
<g id="node4" class="node">
<title>D</title>
<polygon fill="none" stroke="#00ffff" points="0,-73.5 0,-109.5 62,-109.5 62,-73.5 0,-73.5"/>
<text text-anchor="middle" x="9.75" y="-87.3" font-family="Times,serif" font-size="14.00" fill="#000000"> </text>
<polyline fill="none" stroke="#00ffff" points="19.5,-73.5 19.5,-109.5 "/>
<text text-anchor="middle" x="31" y="-87.3" font-family="Times,serif" font-size="14.00" fill="#000000">4</text>
<polyline fill="none" stroke="#00ffff" points="42.5,-73.5 42.5,-109.5 "/>
<text text-anchor="middle" x="52.25" y="-87.3" font-family="Times,serif" font-size="14.00" fill="#000000"> </text>
</g>
<!-- B&#45;&gt;D -->
<g id="edge3" class="edge">
<title>B:data&#45;&gt;D:left</title>
<path fill="none" stroke="#ffa500" d="M109.723,-138.3216C99.0817,-108.9121 25.2019,-146.1338 12.0125,-119.4091"/>
<ellipse fill="#ffa500" stroke="#ffa500" cx="110.3829" cy="-142.5479" rx="4" ry="4"/>
<polygon fill="#ffa500" stroke="#ffa500" points="10,-109.5 16.4004,-118.4042 10.9952,-114.4 11.9904,-119.2999 11.9904,-119.2999 11.9904,-119.2999 10.9952,-114.4 7.5805,-120.1956 10,-109.5 10,-109.5"/>
</g>
<!-- E -->
<g id="node5" class="node">
<title>E</title>
<polygon fill="none" stroke="#00ffff" points="80,-73.5 80,-109.5 142,-109.5 142,-73.5 80,-73.5"/>
<text text-anchor="middle" x="89.75" y="-87.3" font-family="Times,serif" font-size="14.00" fill="#000000"> </text>
<polyline fill="none" stroke="#00ffff" points="99.5,-73.5 99.5,-109.5 "/>
<text text-anchor="middle" x="111" y="-87.3" font-family="Times,serif" font-size="14.00" fill="#000000">5</text>
<polyline fill="none" stroke="#00ffff" points="122.5,-73.5 122.5,-109.5 "/>
<text text-anchor="middle" x="132.25" y="-87.3" font-family="Times,serif" font-size="14.00" fill="#000000"> </text>
</g>
<!-- B&#45;&gt;E -->
<g id="edge4" class="edge">
<title>B:data&#45;&gt;E:right</title>
<path fill="none" stroke="#ffa500" d="M112.5103,-138.6121C116.0464,-130.3258 124.8998,-127.0341 129.3536,-119.6099"/>
<ellipse fill="#ffa500" stroke="#ffa500" cx="111.7522" cy="-142.5714" rx="4" ry="4"/>
<polygon fill="#ffa500" stroke="#ffa500" points="132,-109.5 133.821,-120.3136 130.7338,-114.337 129.4676,-119.1741 129.4676,-119.1741 129.4676,-119.1741 130.7338,-114.337 125.1143,-118.0345 132,-109.5 132,-109.5"/>
</g>
<!-- F -->
<g id="node6" class="node">
<title>F</title>
<polygon fill="none" stroke="#00ffff" points="160,-73.5 160,-109.5 222,-109.5 222,-73.5 160,-73.5"/>
<text text-anchor="middle" x="169.75" y="-87.3" font-family="Times,serif" font-size="14.00" fill="#000000"> </text>
<polyline fill="none" stroke="#00ffff" points="179.5,-73.5 179.5,-109.5 "/>
<text text-anchor="middle" x="191" y="-87.3" font-family="Times,serif" font-size="14.00" fill="#000000">6</text>
<polyline fill="none" stroke="#00ffff" points="202.5,-73.5 202.5,-109.5 "/>
<text text-anchor="middle" x="212.25" y="-87.3" font-family="Times,serif" font-size="14.00" fill="#000000"> </text>
</g>
<!-- C&#45;&gt;F -->
<g id="edge5" class="edge">
<title>C:data&#45;&gt;F:left</title>
<path fill="none" stroke="#ffa500" d="M189.4897,-138.6121C185.9536,-130.3258 177.1002,-127.0341 172.6464,-119.6099"/>
<ellipse fill="#ffa500" stroke="#ffa500" cx="190.2478" cy="-142.5714" rx="4" ry="4"/>
<polygon fill="#ffa500" stroke="#ffa500" points="170,-109.5 176.8857,-118.0345 171.2662,-114.337 172.5324,-119.1741 172.5324,-119.1741 172.5324,-119.1741 171.2662,-114.337 168.179,-120.3136 170,-109.5 170,-109.5"/>
</g>
<!-- G -->
<g id="node7" class="node">
<title>G</title>
<polygon fill="none" stroke="#00ffff" points="240,-73.5 240,-109.5 302,-109.5 302,-73.5 240,-73.5"/>
<text text-anchor="middle" x="249.75" y="-87.3" font-family="Times,serif" font-size="14.00" fill="#000000"> </text>
<polyline fill="none" stroke="#00ffff" points="259.5,-73.5 259.5,-109.5 "/>
<text text-anchor="middle" x="271" y="-87.3" font-family="Times,serif" font-size="14.00" fill="#000000">7</text>
<polyline fill="none" stroke="#00ffff" points="282.5,-73.5 282.5,-109.5 "/>
<text text-anchor="middle" x="292.25" y="-87.3" font-family="Times,serif" font-size="14.00" fill="#000000"> </text>
</g>
<!-- C&#45;&gt;G -->
<g id="edge6" class="edge">
<title>C:data&#45;&gt;G:right</title>
<path fill="none" stroke="#ffa500" d="M192.277,-138.3216C202.9183,-108.9121 276.7981,-146.1338 289.9875,-119.4091"/>
<ellipse fill="#ffa500" stroke="#ffa500" cx="191.6171" cy="-142.5479" rx="4" ry="4"/>
<polygon fill="#ffa500" stroke="#ffa500" points="292,-109.5 294.4195,-120.1956 291.0048,-114.4 290.0096,-119.2999 290.0096,-119.2999 290.0096,-119.2999 291.0048,-114.4 285.5996,-118.4042 292,-109.5 292,-109.5"/>
</g>
<!-- Null -->
<g id="node8" class="node">
<title>Null</title>
<polygon fill="none" stroke="#00ffff" points="124,-.5 124,-36.5 178,-36.5 178,-.5 124,-.5"/>
<text text-anchor="middle" x="150.9439" y="-14.3" font-family="Times,serif" font-size="14.00" fill="#000000">Null</text>
</g>
<!-- D&#45;&gt;Null -->
<g id="edge7" class="edge">
<title>D:DATA&#45;&gt;Null</title>
<path fill="none" stroke="#000000" d="M41.6738,-73.3093C41.7818,-73.2049 41.8905,-73.1018 42,-73 62.7438,-53.7137 91.6005,-39.6945 114.412,-30.7079"/>
<polygon fill="#000000" stroke="#000000" points="115.663,-33.9767 123.7769,-27.1639 113.1854,-27.4298 115.663,-33.9767"/>
</g>
<!-- E&#45;&gt;Null -->
<g id="edge8" class="edge">
<title>E:DATA&#45;&gt;Null</title>
<path fill="none" stroke="#000000" d="M120.8876,-73.4551C125.5031,-65.0319 131.0936,-54.8292 136.1985,-45.5128"/>
<polygon fill="#000000" stroke="#000000" points="139.3515,-47.042 141.0875,-36.5904 133.2127,-43.6782 139.3515,-47.042"/>
</g>
<!-- F&#45;&gt;Null -->
<g id="edge9" class="edge">
<title>F:DATA&#45;&gt;Null</title>
<path fill="none" stroke="#000000" d="M181.1124,-73.4551C176.4969,-65.0319 170.9064,-54.8292 165.8015,-45.5128"/>
<polygon fill="#000000" stroke="#000000" points="168.7873,-43.6782 160.9125,-36.5904 162.6485,-47.042 168.7873,-43.6782"/>
</g>
<!-- G&#45;&gt;Null -->
<g id="edge10" class="edge">
<title>G:DATA&#45;&gt;Null</title>
<path fill="none" stroke="#000000" d="M260.3262,-73.3093C260.2182,-73.2049 260.1095,-73.1018 260,-73 239.2562,-53.7137 210.3995,-39.6945 187.588,-30.7079"/>
<polygon fill="#000000" stroke="#000000" points="188.8146,-27.4298 178.2231,-27.1639 186.337,-33.9767 188.8146,-27.4298"/>
</g>
</g>
</svg>

